<svg xmlns="http://www.w3.org/2000/svg" viewBox="0 0 512 512">
  <!-- Transparent bg for light backgrounds -->
  <circle cx="256" cy="256" r="240" fill="rgba(14,165,233,0.15)"/>
  <circle cx="256" cy="256" r="140" fill="none" stroke="rgba(14,165,233,0.35)" stroke-width="6"/>
  <ellipse cx="256" cy="256" rx="80" ry="140" fill="none" stroke="rgba(14,165,233,0.35)" stroke-width="6"/>
  <line x1="116" y1="200" x2="396" y2="200" stroke="rgba(14,165,233,0.25)" stroke-width="5"/>
  <line x1="116" y1="256" x2="396" y2="256" stroke="rgba(14,165,233,0.25)" stroke-width="5"/>
  <line x1="116" y1="312" x2="396" y2="312" stroke="rgba(14,165,233,0.25)" stroke-width="5"/>
  <g transform="translate(256,256) rotate(-30)">
    <ellipse cx="0" cy="0" rx="80" ry="12" fill="#0ea5e9"/>
    <polygon points="-15,-8 -45,-45 -28,-45 0,-12" fill="#0ea5e9"/>
    <polygon points="-15,8 -45,45 -28,45 0,12" fill="#0ea5e9"/>
    <polygon points="-65,-5 -80,-25 -70,-25 -55,-6" fill="#0ea5e9"/>
    <polygon points="-65,5 -80,25 -70,25 -55,6" fill="#0ea5e9"/>
    <ellipse cx="40" cy="0" rx="14" ry="8" fill="#0ea5e9"/>
  </g>
</svg>