<svg xmlns="http://www.w3.org/2000/svg" viewBox="0 0 512 512">
  <defs>
    <linearGradient id="bg" x1="0%" y1="0%" x2="100%" y2="100%">
      <stop offset="0%" style="stop-color:#0ea5e9"/>
      <stop offset="100%" style="stop-color:#0284c7"/>
    </linearGradient>
  </defs>
  <!-- Background circle -->
  <circle cx="256" cy="256" r="256" fill="url(#bg)"/>
  <!-- Globe lines -->
  <circle cx="256" cy="256" r="140" fill="none" stroke="rgba(255,255,255,0.25)" stroke-width="6"/>
  <ellipse cx="256" cy="256" rx="80" ry="140" fill="none" stroke="rgba(255,255,255,0.25)" stroke-width="6"/>
  <!-- Horizontal lines -->
  <line x1="116" y1="200" x2="396" y2="200" stroke="rgba(255,255,255,0.2)" stroke-width="5"/>
  <line x1="116" y1="256" x2="396" y2="256" stroke="rgba(255,255,255,0.2)" stroke-width="5"/>
  <line x1="116" y1="312" x2="396" y2="312" stroke="rgba(255,255,255,0.2)" stroke-width="5"/>
  <!-- Plane icon in center -->
  <g transform="translate(256,256) rotate(-30)" fill="white">
    <ellipse cx="0" cy="0" rx="80" ry="12"/>
    <path d="-15 -8 L-45 -45 L-28 -45 L0 -12 Z"/>
    <path d="-15 8 L-45 45 L-28 45 L0 12 Z"/>
    <path d="-65 -5 L-80 -25 L-70 -25 L-55 -6 Z"/>
    <path d="-65 5 L-80 25 L-70 25 L-55 6 Z"/>
    <ellipse cx="40" cy="0" rx="14" ry="8"/>
  </g>
</svg>
